<svg xmlns="http://www.w3.org/2000/svg" width="50.027" height="46.454" viewBox="0 0 50.027 46.454">
  <g id="Accessible" transform="translate(-4 -6)">
    <path id="Path_445" data-name="Path 445" d="M5.787,37.267V14.933H45.094v5.36H46.88V10.467A4.467,4.467,0,0,0,42.414,6H8.467A4.467,4.467,0,0,0,4,10.467v26.8a4.467,4.467,0,0,0,4.467,4.467h24.12V39.947H8.467A2.68,2.68,0,0,1,5.787,37.267Zm2.68-29.48H42.414a2.68,2.68,0,0,1,2.68,2.68v2.68H5.787v-2.68A2.68,2.68,0,0,1,8.467,7.787Zm2.68,3.573H7.573V9.573h3.573Zm5.36,0H12.933V9.573h3.573Zm5.36,0H18.293V9.573h3.573Zm29.48,10.72H37.054a2.68,2.68,0,0,0-2.68,2.68V49.774a2.68,2.68,0,0,0,2.68,2.68H51.347a2.68,2.68,0,0,0,2.68-2.68V24.76A2.68,2.68,0,0,0,51.347,22.08ZM37.054,23.867H51.347a.893.893,0,0,1,.893.893v2.68H36.16V24.76A.893.893,0,0,1,37.054,23.867Zm15.187,5.36V43.52H36.16V29.227Zm-.893,21.44H37.054a.893.893,0,0,1-.893-.893V45.307H52.24v4.467A.893.893,0,0,1,51.347,50.667ZM16.507,19.4a.893.893,0,0,0-.893-.893h-5.36a.893.893,0,0,0-.893.893v5.36a.893.893,0,0,0,.893.893h5.36a.893.893,0,0,0,.893-.893ZM14.72,23.867H11.147V20.293H14.72Zm.893,5.36h-5.36a.893.893,0,0,0-.893.893v5.36a.893.893,0,0,0,.893.893h5.36a.893.893,0,0,0,.893-.893V30.12A.893.893,0,0,0,15.613,29.227Zm-.893,5.36H11.147V31.014H14.72Zm26.8-14.293H20.08V18.507H41.52ZM30.8,25.653H20.08V23.867H30.8Zm0,5.36H20.08V29.227H30.8ZM20.08,34.587H30.8v1.787H20.08Zm26.8-8.04H41.52V24.76h5.36ZM41.52,47.094h5.36V48.88H41.52Z" transform="translate(0)" fill="#fff"/>
  </g>
</svg>
