<svg xmlns="http://www.w3.org/2000/svg" width="47.587" height="51.247" viewBox="0 0 47.587 51.247">
  <path id="features" d="M47.737,16.664l2.188,1.778-.737,2.738a1.063,1.063,0,0,0,.4,1.141,1.036,1.036,0,0,0,1.2.029L53.131,20.8,55.48,22.35a1.036,1.036,0,0,0,1.2-.029,1.063,1.063,0,0,0,.4-1.141l-.737-2.738,2.188-1.778a1.064,1.064,0,0,0,.342-1.159,1.047,1.047,0,0,0-.951-.735l-2.8-.138-1-2.653a1.05,1.05,0,0,0-1.97,0l-1,2.653-2.8.138a1.047,1.047,0,0,0-.951.735A1.064,1.064,0,0,0,47.737,16.664Zm3.873-.4a1.054,1.054,0,0,0,.934-.686l.588-1.564.588,1.564a1.054,1.054,0,0,0,.934.685l1.654.082-1.29,1.048a1.071,1.071,0,0,0-.357,1.109l.434,1.615L53.708,19.2a1.044,1.044,0,0,0-1.154,0l-1.385.916L51.6,18.5a1.072,1.072,0,0,0-.357-1.109l-1.29-1.048Zm9.966,5.111-.1,0a9.248,9.248,0,1,0-16.3.743,9.345,9.345,0,1,0,8.8,13.94,9.287,9.287,0,1,0,7.595-14.685ZM53.131,9.651a7.712,7.712,0,0,1,6.33,11.973A9.285,9.285,0,0,0,53.536,26.1,9.246,9.246,0,0,0,47.2,22.175,7.712,7.712,0,0,1,53.131,9.651ZM45.944,39.132a7.7,7.7,0,1,1,7.614-7.7A7.664,7.664,0,0,1,45.944,39.132Zm15.631-.712a7.629,7.629,0,0,1-6.794-4.22,9.446,9.446,0,0,0-.283-6.318A7.633,7.633,0,1,1,61.575,38.42Zm5.736-9.538a1.048,1.048,0,0,0-.951-.735l-2.8-.138-1-2.653a1.05,1.05,0,0,0-1.97,0l-1,2.653-2.8.138a1.048,1.048,0,0,0-.951.735,1.064,1.064,0,0,0,.342,1.159l2.188,1.778-.737,2.738a1.063,1.063,0,0,0,.4,1.141,1.036,1.036,0,0,0,1.2.029l2.349-1.554,2.349,1.554a1.037,1.037,0,0,0,1.2-.029,1.063,1.063,0,0,0,.4-1.141l-.736-2.738,2.188-1.778a1.064,1.064,0,0,0,.342-1.159ZM63.46,30.772a1.071,1.071,0,0,0-.357,1.109l.434,1.615-1.386-.917a1.044,1.044,0,0,0-1.154,0l-1.385.916.434-1.614a1.071,1.071,0,0,0-.357-1.109L58.4,29.724l1.654-.082a1.054,1.054,0,0,0,.933-.686l.588-1.564.587,1.564a1.055,1.055,0,0,0,.934.686l1.654.082ZM59.524,41.749l-7.856,4.625a4.291,4.291,0,0,1-.907.406,3.412,3.412,0,0,0,.231-.625,3.136,3.136,0,0,0-2.108-3.749.852.852,0,0,0-.107-.027A38.952,38.952,0,0,1,42.52,40.5c-.623-.228-1.212-.443-1.713-.607-2.056-.674-3.9.154-5.441,1.053l-5.74,3.359-.491-.877a1.964,1.964,0,0,0-1.191-.939,1.941,1.941,0,0,0-1.5.185l-2.2,1.261a2.009,2.009,0,0,0-.746,2.72l6.481,11.574A1.972,1.972,0,0,0,31.7,59.245a1.946,1.946,0,0,0,.969-.259l2.2-1.261a2.01,2.01,0,0,0,.746-2.72l-.609-1.088,1.186-.692,10.014,2.712a6.426,6.426,0,0,0,1.682.229,5.985,5.985,0,0,0,3.192-.927l14.258-8.874a3.392,3.392,0,0,0,.905-4.443c-.425-.718-2.168-2.854-6.719-.174ZM34.064,56.287l-2.2,1.261a.342.342,0,0,1-.462-.129L24.917,45.845a.349.349,0,0,1,.128-.467l2.2-1.261a.326.326,0,0,1,.163-.043.349.349,0,0,1,.094.013.338.338,0,0,1,.2.16L34.192,55.82A.349.349,0,0,1,34.064,56.287ZM64.48,44.959,50.223,53.832a4.385,4.385,0,0,1-3.593.509l-10.341-2.8a.81.81,0,0,0-.62.083l-1.467.856-3.769-6.732,5.754-3.367C37.471,41.628,38.86,41,40.3,41.47c.476.156,1.025.357,1.662.589a40.53,40.53,0,0,0,6.463,1.936,1.459,1.459,0,0,1,.985,1.732,1.382,1.382,0,0,1-1.682,1c-1.15-.239-2.244-.555-3.4-.889-.553-.16-1.124-.325-1.712-.484a.817.817,0,0,0-1,.584.828.828,0,0,0,.578,1.012c.575.156,1.14.319,1.686.476,1.2.347,2.336.674,3.559.927l1.01.167a5.83,5.83,0,0,0,4.043-.719l7.856-4.625c2.2-1.293,3.877-1.445,4.493-.4a1.737,1.737,0,0,1-.36,2.186ZM27.83,46.246a.787.787,0,1,1-.893-.672A.794.794,0,0,1,27.83,46.246ZM51.68,29.595a1.047,1.047,0,0,0-.951-.734l-2.8-.138-1-2.653a1.05,1.05,0,0,0-1.97,0l-1,2.653-2.8.138a1.047,1.047,0,0,0-.951.734,1.064,1.064,0,0,0,.342,1.159l2.188,1.778L42,35.27a1.063,1.063,0,0,0,.4,1.141,1.036,1.036,0,0,0,1.2.029l2.349-1.554,2.349,1.554a1.037,1.037,0,0,0,1.2-.03,1.063,1.063,0,0,0,.4-1.141l-.737-2.738,2.188-1.778a1.063,1.063,0,0,0,.342-1.159Zm-3.852,1.89a1.071,1.071,0,0,0-.357,1.109l.434,1.615-1.385-.916a1.044,1.044,0,0,0-1.154,0l-1.385.916.434-1.614a1.071,1.071,0,0,0-.357-1.109l-1.29-1.048,1.654-.082a1.054,1.054,0,0,0,.933-.686l.588-1.564.588,1.564a1.055,1.055,0,0,0,.934.686l1.654.082Z" transform="translate(-23.238 -7.998)" fill="#fff"/>
</svg>
