<svg xmlns="http://www.w3.org/2000/svg" width="22" height="22" viewBox="0 0 22 22">
  <g id="Group_3750" data-name="Group 3750" transform="translate(-8.358 -9.473)">
    <path id="Icon_akar-linkedin-v2-fill" data-name="Icon akar-linkedin-v2-fill" d="M11.172,10.666h4.085V12.7a4.687,4.687,0,0,1,4.365-2.222c4.346,0,5.378,2.33,5.378,6.6V25H20.6V18.057c0-2.434-.588-3.807-2.087-3.807-2.078,0-2.941,1.479-2.941,3.806V25h-4.4V10.666ZM3.627,24.813h4.4V10.479h-4.4V24.813ZM8.657,5.8a2.783,2.783,0,0,1-.828,1.982A2.828,2.828,0,0,1,3,5.8a2.788,2.788,0,0,1,.828-1.983,2.846,2.846,0,0,1,4,0A2.792,2.792,0,0,1,8.657,5.8Z" transform="translate(5.358 6.473)" fill="#152d6b"/>
  </g>
</svg>
