<svg xmlns="http://www.w3.org/2000/svg" xmlns:xlink="http://www.w3.org/1999/xlink" width="25.79" height="25.79" viewBox="0 0 25.79 25.79">
  <defs>
    <clipPath id="clip-path">
      <rect id="Rectangle_120" data-name="Rectangle 120" width="25.79" height="25.79" fill="#323232"/>
    </clipPath>
  </defs>
  <g id="Group_141" data-name="Group 141" transform="translate(-150.375 -7593.21)">
    <g id="Group_105" data-name="Group 105" transform="translate(150.375 7593.21)" opacity="0.3">
      <g id="Group_103" data-name="Group 103" transform="translate(0 0)" clip-path="url(#clip-path)">
        <path id="Path_181" data-name="Path 181" d="M25.223,19.681c-.79-.678-5.543-3.731-6.333-3.508-.339,0-.567.339-1.361,1.245A12.543,12.543,0,0,1,16.4,18.663a17.57,17.57,0,0,1-2.263-.794,13.787,13.787,0,0,1-6.221-6.221,17.334,17.334,0,0,1-.79-2.263A12.477,12.477,0,0,1,8.368,8.256c.906-.79,1.245-1.018,1.245-1.357C9.84,6.105,6.788,1.357,6.105.563A1.141,1.141,0,0,0,5.2,0C4.3,0,0,5.315,0,5.994c0,.112.112,5.654,7.127,12.669S19.681,25.79,19.792,25.79c.678,0,6-4.3,6-5.2a1.159,1.159,0,0,0-.567-.906" transform="translate(0 0)" fill="#323232"/>
        <path id="Path_182" data-name="Path 182" d="M9,8.516h1.812A7.341,7.341,0,0,0,3.458,1.162V2.974A5.554,5.554,0,0,1,9,8.516" transform="translate(10.341 3.475)" fill="#323232"/>
        <path id="Path_183" data-name="Path 183" d="M13.637,11.991h1.812A11.928,11.928,0,0,0,3.458,0V1.812A10.138,10.138,0,0,1,13.637,11.991" transform="translate(10.341 0)" fill="#323232"/>
      </g>
    </g>
  </g>
</svg>
