<svg xmlns="http://www.w3.org/2000/svg" width="50.062" height="52.566" viewBox="0 0 50.062 52.566">
  <g id="Innovative" transform="translate(-9)">
    <path id="Path_443" data-name="Path 443" d="M131.12,106.626a14.654,14.654,0,0,0-20.137,0,13.742,13.742,0,0,0-4.07,9.89,14.027,14.027,0,0,0,4.893,10.6,9.082,9.082,0,0,1,3,5.66,2.844,2.844,0,0,0-1.4,2.447v.852a2.846,2.846,0,0,0,2.053,2.731,2.827,2.827,0,0,0-.247,1.157v.852a2.844,2.844,0,0,0,2.839,2.842h5.992a2.844,2.844,0,0,0,2.839-2.842v-.852a2.827,2.827,0,0,0-.247-1.157,2.846,2.846,0,0,0,2.053-2.731v-.852a2.844,2.844,0,0,0-1.4-2.447,9.083,9.083,0,0,1,3-5.66,14.026,14.026,0,0,0,4.893-10.6A13.742,13.742,0,0,0,131.12,106.626Zm-6.013,34.19a1.053,1.053,0,0,1-1.059,1.045h-5.992A1.053,1.053,0,0,1,117,140.816v-.852a1.054,1.054,0,0,1,1.059-1.045h5.992a1.053,1.053,0,0,1,1.059,1.045v.852Zm1.807-4.739a1.053,1.053,0,0,1-1.059,1.045h-9.605a1.053,1.053,0,0,1-1.059-1.045v-.852a1.053,1.053,0,0,1,1.059-1.045h9.605a1.053,1.053,0,0,1,1.059,1.045Zm-8.622-14.967h-1.765a1.28,1.28,0,1,1,0-2.56H117a1.289,1.289,0,0,1,1.295,1.28Zm3.8,11.273h-2.024v-9.476H122.1Zm7.044-6.63a10.823,10.823,0,0,0-3.584,6.63h-1.68v-9.476h1.794a3.077,3.077,0,0,0,0-6.155h-.5a3.079,3.079,0,0,0-3.075,3.077v1.28h-2.024v-1.28A3.079,3.079,0,0,0,117,116.752h-.471a3.077,3.077,0,0,0,0,6.155h1.765v9.476h-1.744a10.823,10.823,0,0,0-3.584-6.63,12.225,12.225,0,0,1-4.271-9.237,12.361,12.361,0,0,1,24.717,0A12.223,12.223,0,0,1,129.139,125.753Zm-5.264-4.643v-1.28a1.289,1.289,0,0,1,1.295-1.28h.5a1.28,1.28,0,1,1,0,2.56Z" transform="translate(-87.02 -91.093)" fill="#fff"/>
    <g id="Group_235" data-name="Group 235" transform="translate(9 0)">
      <path id="Path_444" data-name="Path 444" d="M48.285,45.437a2.508,2.508,0,0,1-1.794-.749l-2.5-2.52L45.244,40.9l2.5,2.52a.851.851,0,0,0,1.1.042l3.068-2.986a.86.86,0,0,0,.041-1.093l-2.443-2.46a.9.9,0,0,1-.105-1.145,18.529,18.529,0,0,0,2.783-6.605.892.892,0,0,1,.871-.715h3.481a.818.818,0,0,0,.739-.781V23.328a.839.839,0,0,0-.883-.742H52.854a.893.893,0,0,1-.878-.75,17.94,17.94,0,0,0-2.683-6.692.905.905,0,0,1,.117-1.127l2.5-2.52a.861.861,0,0,0,.041-1.1L48.988,7.305A.85.85,0,0,0,47.9,7.265l-2.443,2.46a.884.884,0,0,1-1.13.106,18.274,18.274,0,0,0-6.562-2.8.9.9,0,0,1-.709-.88V2.578a.742.742,0,0,0-.674-.781H32.062a.818.818,0,0,0-.739.781V6.253a.9.9,0,0,1-.744.886,17.686,17.686,0,0,0-6.649,2.7.884.884,0,0,1-1.112-.118l-2.5-2.52a.851.851,0,0,0-1.1-.042l-3.068,2.986a.86.86,0,0,0-.04,1.093l2.443,2.46a.9.9,0,0,1,.105,1.145,18.529,18.529,0,0,0-2.783,6.605.892.892,0,0,1-.871.715H11.519a.818.818,0,0,0-.739.781v4.344a.817.817,0,0,0,.779.742H15.1a.893.893,0,0,1,.878.75,17.937,17.937,0,0,0,2.683,6.692.905.905,0,0,1-.117,1.127l-2.5,2.52a.86.86,0,0,0-.041,1.1l2.966,3.089a.85.85,0,0,0,1.092.041l2.443-2.46,1.257,1.272-2.5,2.52a.885.885,0,0,1-.112.1,2.613,2.613,0,0,1-3.439-.2l-.011-.011-3.024-3.15a.913.913,0,0,1-.085-.1,2.663,2.663,0,0,1,.2-3.469l2-2.013a19.859,19.859,0,0,1-2.419-6.007h-2.81a2.6,2.6,0,0,1-2.552-2.362A.915.915,0,0,1,9,27.357v-4.41a2.6,2.6,0,0,1,2.344-2.572.88.88,0,0,1,.11-.007H14.29a20.418,20.418,0,0,1,2.487-5.912l-1.989-2a.892.892,0,0,1-.1-.113,2.663,2.663,0,0,1,.2-3.469l.011-.011,3.128-3.045a.9.9,0,0,1,.1-.085,2.613,2.613,0,0,1,3.439.2l2,2.016A19.57,19.57,0,0,1,29.544,5.51V2.578A2.6,2.6,0,0,1,31.888.007.874.874,0,0,1,32,0h4.38a2.522,2.522,0,0,1,2.454,2.579V5.431a20.122,20.122,0,0,1,5.875,2.506L46.7,5.932a.885.885,0,0,1,.112-.1,2.613,2.613,0,0,1,3.439.2l.011.011L53.284,9.2a.9.9,0,0,1,.085.1,2.663,2.663,0,0,1-.2,3.469l-2,2.013a19.867,19.867,0,0,1,2.419,6.007H56.4a2.624,2.624,0,0,1,2.656,2.362.916.916,0,0,1,.007.112v4.41a2.6,2.6,0,0,1-2.344,2.572.88.88,0,0,1-.11.007H53.772a20.418,20.418,0,0,1-2.487,5.912l1.989,2a.892.892,0,0,1,.1.113,2.663,2.663,0,0,1-.2,3.469l-.011.011L50.03,44.8a.9.9,0,0,1-.1.085,2.821,2.821,0,0,1-1.645.548Z" transform="translate(-9 0)" fill="#fff"/>
    </g>
  </g>
</svg>
