<svg xmlns="http://www.w3.org/2000/svg" width="24" height="16" viewBox="0 0 24 16">
  <path id="Path_40990" data-name="Path 40990" d="M776.229-1356.262c0-.01,0-.02-.007-.028a3.283,3.283,0,0,0-2.379-2.277c-1.836-.418-8.827-.423-9.124-.423s-7.293.005-9.141.466a3.288,3.288,0,0,0-2.369,2.3,26.992,26.992,0,0,0-.489,5.249,26.967,26.967,0,0,0,.5,5.336,3.3,3.3,0,0,0,2.364,2.183c1.842.46,8.838.465,9.135.465s7.293-.005,9.141-.467a3.283,3.283,0,0,0,2.369-2.3,27.026,27.026,0,0,0,.489-5.209A27.011,27.011,0,0,0,776.229-1356.262Zm-7.609,5.674-6.026,3.2a.505.505,0,0,1-.233.056.506.506,0,0,1-.237-.059.437.437,0,0,1-.235-.381v-6.4a.437.437,0,0,1,.235-.38.5.5,0,0,1,.47,0l6.026,3.2a.436.436,0,0,1,.239.382A.436.436,0,0,1,768.62-1350.589Z" transform="translate(-752.719 1358.991)" fill="#152d6b"/>
</svg>
