<svg xmlns="http://www.w3.org/2000/svg" width="49.599" height="49.599" viewBox="0 0 49.599 49.599">
  <g id="Secured" transform="translate(0)">
    <path id="Path_107" data-name="Path 107" d="M17.653,46.053a2.484,2.484,0,0,1,1.653-2.338V59.162H20.96V36.133a2.483,2.483,0,0,1,2.48-2.48H49.3V32H23.44a4.138,4.138,0,0,0-4.133,4.133V42A4.14,4.14,0,0,0,16,46.053V59.516h1.653Z" transform="translate(-14.347 -28.693)" fill="#fff"/>
    <path id="Path_108" data-name="Path 108" d="M48.773,265.722h-.827V246H46.293v19.722H31.755a3.625,3.625,0,0,0-2.58,1.069,1.983,1.983,0,0,1-1.411.585H21.835a1.983,1.983,0,0,1-1.411-.585,3.625,3.625,0,0,0-2.58-1.069H3.307v-5.669H1.653v5.669H.827a.827.827,0,0,0-.827.827v2.48a3.31,3.31,0,0,0,3.307,3.307H46.293a3.31,3.31,0,0,0,3.307-3.307v-2.48A.827.827,0,0,0,48.773,265.722Zm-.827,3.307a1.655,1.655,0,0,1-1.653,1.653H3.307a1.655,1.655,0,0,1-1.653-1.653v-1.653H17.844a1.983,1.983,0,0,1,1.411.585,3.625,3.625,0,0,0,2.577,1.069h5.935a3.625,3.625,0,0,0,2.577-1.069,1.983,1.983,0,0,1,1.411-.585H47.946Z" transform="translate(0 -222.736)" fill="#fff"/>
    <path id="Path_109" data-name="Path 109" d="M416,248h1.653v15.706H416Z" transform="translate(-373.014 -222.374)" fill="#fff"/>
    <path id="Path_110" data-name="Path 110" d="M48,384h1.653v1.653H48Z" transform="translate(-43.04 -344.32)" fill="#fff"/>
    <path id="Path_111" data-name="Path 111" d="M87.995,64h1.653v1.653H87.995Z" transform="translate(-78.902 -57.387)" fill="#fff"/>
    <path id="Path_112" data-name="Path 112" d="M119.995,64h1.653v1.653h-1.653Z" transform="translate(-107.596 -57.387)" fill="#fff"/>
    <path id="Path_113" data-name="Path 113" d="M151.995,64h1.653v1.653h-1.653Z" transform="translate(-136.289 -57.387)" fill="#fff"/>
    <path id="Path_114" data-name="Path 114" d="M88,96h20.666v1.653H88Z" transform="translate(-78.907 -86.08)" fill="#fff"/>
    <path id="Path_115" data-name="Path 115" d="M191.536,131.333a8.278,8.278,0,0,1,8.2.751l.952-1.352a9.908,9.908,0,0,0-11.41,0l.952,1.352a8.276,8.276,0,0,1,1.305-.751Z" transform="translate(-169.72 -115.603)" fill="#fff"/>
    <path id="Path_116" data-name="Path 116" d="M282.4,341.149a20.575,20.575,0,0,0,4.265-6.57l-1.532-.621A18.931,18.931,0,0,1,281.206,340Z" transform="translate(-252.148 -299.449)" fill="#fff"/>
    <path id="Path_117" data-name="Path 117" d="M183.2,9.92h-.827V7.44a7.44,7.44,0,1,0-14.88,0,.827.827,0,0,0,.827.827h3.307a.827.827,0,0,0,.827-.827,2.48,2.48,0,0,1,4.96,0V9.92H166.67a.827.827,0,0,0-.827.827v7.517a14.567,14.567,0,0,0-6.746-1.631h-.116a13.7,13.7,0,0,0-7.731,2.383l.929,1.367a12.056,12.056,0,0,1,6.8-2.1h.116a12.855,12.855,0,0,1,6.746,1.876v1.993a11.2,11.2,0,0,0-6.744-2.216h-.116a10.59,10.59,0,0,0-8.664,4.562l-.4.57,1.357.944.4-.57a8.936,8.936,0,0,1,7.307-3.854h.116a9.254,9.254,0,0,1,7.6,3.783,8.8,8.8,0,0,1,1.295,2.728,8.616,8.616,0,0,1,0,4.722l1.591.449a10.262,10.262,0,0,0,0-5.621,10.446,10.446,0,0,0-1.535-3.232c-.108-.153-.221-.3-.338-.449H183.2a.827.827,0,0,0,.827-.827v-12.4a.827.827,0,0,0-.827-.827Zm-8.267-6.613a4.141,4.141,0,0,0-4.051,3.307h-1.677a5.787,5.787,0,0,1,11.514.827V9.92H179.07V7.44A4.138,4.138,0,0,0,174.936,3.307Zm7.44,19.013H167.5V11.573h14.88Z" transform="translate(-134.43)" fill="#fff"/>
    <path id="Path_118" data-name="Path 118" d="M358.5,131.224a2.429,2.429,0,0,0,.117-.744,2.48,2.48,0,1,0-4.96,0,2.428,2.428,0,0,0,.117.744A4.113,4.113,0,0,0,352,134.613a.827.827,0,0,0,.827.827h6.613a.827.827,0,0,0,.827-.827A4.113,4.113,0,0,0,358.5,131.224Zm-4.7,2.563a2.474,2.474,0,0,1,1.4-1.467.827.827,0,0,0,.314-1.305.816.816,0,0,1-.205-.534.827.827,0,1,1,1.653,0,.817.817,0,0,1-.205.534.827.827,0,0,0,.314,1.305,2.474,2.474,0,0,1,1.4,1.467Z" transform="translate(-315.627 -114.773)" fill="#fff"/>
    <path id="Path_119" data-name="Path 119" d="M.827,239.741H17.579l-.1.1,1.169,1.169,1.271-1.271H22.25l-2.318,2.317,1.169,1.169,4.156-4.157a14.108,14.108,0,0,0,3.487-5.718,3.843,3.843,0,0,0-.576-3.463,3.923,3.923,0,0,0-3.2-1.622h-.421A4,4,0,0,0,20.81,231c-.056.164-.117.32-.185.473H18.734a4.142,4.142,0,0,0,.515-1.012,5.646,5.646,0,0,1,5.3-3.849h.422A5.63,5.63,0,0,1,29.5,228.9a5.481,5.481,0,0,1,.821,4.943,15.788,15.788,0,0,1-3.888,6.393l-3.05,3.05,1.169,1.169,3.05-3.05a17.444,17.444,0,0,0,4.3-7.063,7.118,7.118,0,0,0-1.064-6.419,7.29,7.29,0,0,0-5.858-2.966h-.421a7.3,7.3,0,0,0-6.866,4.963,2.592,2.592,0,0,1-.6.966l-.585.584H.827A.827.827,0,0,0,0,232.3v6.613a.827.827,0,0,0,.827.827Zm23.725-9.821h.422a2.286,2.286,0,0,1,1.862.946,2.206,2.206,0,0,1,.334,1.987,12.257,12.257,0,0,1-2.37,4.281v-2.928A10.639,10.639,0,0,0,25.692,232a.207.207,0,0,0-.147-.253l-.019,0-1.554-.264H22.4A2.31,2.31,0,0,1,24.552,229.921Zm-22.9,3.207H23.146v4.96H1.653Z" transform="translate(0 -201.715)" fill="#fff"/>
    <path id="Path_120" data-name="Path 120" d="M32,320h1.653v1.653H32Z" transform="translate(-28.693 -286.934)" fill="#fff"/>
    <path id="Path_121" data-name="Path 121" d="M64,320h1.653v1.653H64Z" transform="translate(-57.387 -286.934)" fill="#fff"/>
    <path id="Path_122" data-name="Path 122" d="M96,320h1.653v1.653H96Z" transform="translate(-86.08 -286.934)" fill="#fff"/>
    <path id="Path_123" data-name="Path 123" d="M128,320h1.653v1.653H128Z" transform="translate(-114.774 -286.934)" fill="#fff"/>
  </g>
</svg>
